<svg xmlns="http://www.w3.org/2000/svg" xmlns:svg="http://www.w3.org/2000/svg" id="svg2" width="210mm" height="297mm" version="1.1" viewBox="0 0 744.094 1052.362"><metadata id="metadata7"/><g id="layer1"><path style="opacity:1;fill:none;fill-opacity:1;stroke:#000;stroke-width:3;stroke-linecap:round;stroke-linejoin:round;stroke-miterlimit:4;stroke-dasharray:none;stroke-dashoffset:2.5;stroke-opacity:1" id="path4136" d="M -309.7089,179.96927 C -301.5675,149.58517 6.6479024,122.23392 31.093757,102.43806 55.539609,82.642194 146.3747,-213.15131 177.78753,-214.79758 209.20036,-216.44386 330.45674,68.23441 356.83791,85.366541 383.21907,102.49867 692.605,97.48276 703.8778,126.84941 715.15059,156.21605 481.87575,359.50814 473.73436,389.89225 465.59297,420.27635 565.96889,712.96985 541.52303,732.76571 517.07718,752.56157 251.64902,593.52472 220.23619,595.171 188.82337,596.81728 -58.526825,782.72772 -84.907991,765.59559 -111.28916,748.46345 -42.057943,446.88119 -53.330744,417.51454 -64.603544,388.1479 -317.85029,210.35337 -309.7089,179.96927 Z" transform="matrix(0.27595287,0.01364323,-0.01364323,0.27595287,98.414441,831.45858)"/></g></svg>